<?xml version="1.0" encoding="UTF-8" standalone="no"?>
<!-- Created with Inkscape (http://www.inkscape.org/) -->

<svg
   width="210mm"
   height="297mm"
   viewBox="0 0 210 297"
   version="1.1"
   id="svg5"
   inkscape:version="1.2 (dc2aedaf03, 2022-05-15)"
   sodipodi:docname="s_r_d2cml.svg"
   inkscape:export-filename="Sdml_r.png"
   inkscape:export-xdpi="460.61816"
   inkscape:export-ydpi="460.61816"
   xml:space="preserve"
   xmlns:inkscape="http://www.inkscape.org/namespaces/inkscape"
   xmlns:sodipodi="http://sodipodi.sourceforge.net/DTD/sodipodi-0.dtd"
   xmlns="http://www.w3.org/2000/svg"
   xmlns:svg="http://www.w3.org/2000/svg"><sodipodi:namedview
     id="namedview7"
     pagecolor="#505050"
     bordercolor="#ffffff"
     borderopacity="1"
     inkscape:showpageshadow="0"
     inkscape:pageopacity="0"
     inkscape:pagecheckerboard="1"
     inkscape:deskcolor="#505050"
     inkscape:document-units="mm"
     showgrid="false"
     inkscape:zoom="1.4912879"
     inkscape:cx="451.28777"
     inkscape:cy="267.55397"
     inkscape:window-width="1920"
     inkscape:window-height="1017"
     inkscape:window-x="-8"
     inkscape:window-y="-8"
     inkscape:window-maximized="1"
     inkscape:current-layer="layer1" /><defs
     id="defs2"><rect
       x="106.44858"
       y="93.646298"
       width="10.431486"
       height="12.802279"
       id="rect271" /><rect
       x="68.397257"
       y="80.467361"
       width="606.18745"
       height="473.41631"
       id="rect67" /><linearGradient
       x1="78.82056"
       y1="35.284828"
       x2="189.13988"
       y2="158.42988"
       id="a"
       gradientTransform="scale(1.2333188,0.81082038)"
       gradientUnits="userSpaceOnUse"><stop
         stop-color="#C9CBCE"
         offset="0%"
         id="stop337" /><stop
         stop-color="#7B7A81"
         offset="100%"
         id="stop339" /></linearGradient></defs><g
     inkscape:label="Layer 1"
     inkscape:groupmode="layer"
     id="layer1"><rect
       style="opacity:0.7;fill:#808080;fill-opacity:0.954225;stroke-width:0.321237"
       id="rect907"
       width="41.03035"
       height="38.222084"
       x="88.765335"
       y="12.462403"
       inkscape:label="rect907" /><ellipse
       style="display:inline;opacity:0.98;fill:#f9f9f9;fill-opacity:1;stroke-width:0.231162"
       id="path1690"
       cx="109.2022"
       cy="31.425297"
       rx="20.280268"
       ry="18.962893"
       inkscape:label="round" /><text
       xml:space="preserve"
       transform="matrix(0.33027858,0,0,0.31244322,-13.810545,-8.7967768)"
       id="text65"
       style="white-space:pre;shape-inside:url(#rect67);display:inline;fill:#808080"
       x="59.594719"
       y="0"><tspan
         x="348.04334"
         y="121.32016"
         id="tspan4755"><tspan
           style="font-weight:300;font-size:42.6667px;font-family:'Exo 2';-inkscape-font-specification:'Exo 2, Light';text-align:center;text-anchor:middle"
           id="tspan4751">D</tspan><tspan
           style="font-size:29.3333px;text-align:center;text-anchor:middle"
           id="tspan4753">2</tspan></tspan></text><text
       xml:space="preserve"
       transform="scale(0.26458333)"
       id="text269"
       style="font-style:normal;font-variant:normal;font-weight:normal;font-stretch:normal;font-size:42.6667px;font-family:Roboto;-inkscape-font-specification:Roboto;white-space:pre;shape-inside:url(#rect271);display:inline;fill:#000000" /><text
       xml:space="preserve"
       style="font-style:normal;font-variant:normal;font-weight:normal;font-stretch:normal;font-size:13.7061px;font-family:'Exo 2';-inkscape-font-specification:'Exo 2, Normal';font-variant-ligatures:normal;font-variant-caps:normal;font-variant-numeric:normal;font-variant-east-asian:normal;text-align:center;text-anchor:middle;fill:#1a1a1a;stroke-width:0.321237"
       x="105.7939"
       y="40.268368"
       id="text338"
       transform="scale(1.0281457,0.9726248)"><tspan
         sodipodi:role="line"
         id="tspan336"
         style="font-style:normal;font-variant:normal;font-weight:normal;font-stretch:normal;font-size:13.7061px;font-family:'Exo 2';-inkscape-font-specification:'Exo 2, Normal';font-variant-ligatures:normal;font-variant-caps:normal;font-variant-numeric:normal;font-variant-east-asian:normal;fill:#1a1a1a;stroke-width:0.321237"
         x="105.7939"
         y="40.268368">C<tspan
   style="font-style:normal;font-variant:normal;font-weight:normal;font-stretch:normal;font-size:12.8495px;font-family:'Exo 2';-inkscape-font-specification:'Exo 2, Normal';font-variant-ligatures:normal;font-variant-caps:normal;font-variant-numeric:normal;font-variant-east-asian:normal;fill:#1a1a1a;stroke-width:0.321237"
   id="tspan344">ML</tspan></tspan></text><text
       xml:space="preserve"
       style="font-style:normal;font-variant:normal;font-weight:300;font-stretch:normal;font-size:7.7611px;font-family:'Exo 2';-inkscape-font-specification:'Exo 2, Light';font-variant-ligatures:normal;font-variant-caps:normal;font-variant-numeric:normal;font-variant-east-asian:normal;text-align:center;text-anchor:middle;fill:#000000;stroke-width:0.264583"
       x="108.23581"
       y="19.633619"
       id="text348"><tspan
         sodipodi:role="line"
         id="tspan346"
         style="stroke-width:0.264583" /></text><path
       style="fill:#800000;stroke-width:0.0903581"
       d="m 33.981824,96.846613 c -2.76342,-2.924834 -5.6814,-6.008851 -6.4844,-6.853355 l -1.45999,-1.53548 v -9.351435 -9.351437 h 8.52984 8.52984 l 0.29551,-0.538599 c 0.2718,-0.495371 0.35848,-0.572428 1.07999,-0.960111 0.88794,-0.477107 1.03844,-0.727981 0.39224,-0.653848 -0.93165,0.106879 -1.60253,0.04927 -1.92549,-0.165351 -0.52604,-0.349565 -0.71804,-1.05822 -0.46961,-1.733291 0.0566,-0.15391 -0.0991,-0.163921 -2.55073,-0.163921 h -2.61106 l -5.63526,-6.187931 -5.63527,-6.187932 V 34.820154 16.476384 l 6.49703,-6.847535 6.49703,-6.8475341 h 17.04493 17.04494 l 2.54185,2.69841 c 1.39802,1.4841251 4.31674,4.5693591 6.48603,6.8560741 l 3.94417,4.157666 v 10.238582 10.238584 h -8.53159 -8.5316 l -0.0379,0.563275 c -0.0827,1.228035 -0.99504,1.776108 -2.2136,1.32972 -0.33105,-0.121273 -0.96669,-0.225516 -1.77898,-0.291751 -0.69513,-0.05668 -1.65107,-0.189152 -2.1243,-0.294381 -0.47323,-0.105227 -0.87883,-0.171548 -0.90132,-0.147379 -0.0225,0.02417 0.28853,0.394903 0.69115,0.823853 0.48953,0.521537 1.04801,0.989015 1.6858,1.411109 l 0.95375,0.631201 4.76323,0.0011 4.76323,0.0011 2.26099,2.458821 c 1.24355,1.352351 3.77754,4.123676 5.63108,6.158499 l 3.37008,3.699679 v 17.572367 17.572367 l -1.89904,2.004793 c -1.04447,1.102629 -3.96168,4.186112 -6.48269,6.852179 l -4.58365,4.847387 h -17.06092 -17.06091 z m 44.5544,-2.717544 5.99681,-6.342811 -0.004,-16.892038 -0.004,-16.892037 -0.93749,-1.061176 c -0.51562,-0.583646 -2.83984,-3.148056 -5.16494,-5.698689 l -4.22745,-4.637515 -4.20606,-0.007 -4.20605,-0.007 -1.15453,-0.759207 c -1.65009,-1.085082 -2.12956,-1.472392 -2.87039,-2.318669 -0.99318,-1.134555 -1.46563,-1.986294 -1.46563,-2.642272 0,-0.6161 0.19254,-0.691105 0.85275,-0.332192 0.94381,0.513094 2.33409,0.8334 4.3111,0.993234 0.82452,0.06666 1.33893,0.156582 1.65036,0.288501 0.44606,0.18894 0.45564,0.189125 0.67614,0.01305 0.44262,-0.353456 0.28788,-0.908776 -0.56783,-2.037758 l -0.38723,-0.510894 h 8.84729 8.84729 l 0.0226,-9.049848 0.0226,-9.049849 -6.01432,-6.353565 -6.01431,-6.3535663 -16.474,-0.00161 -16.47399,-0.00161 -6.03611,6.3741663 -6.0361,6.374167 0.003,17.62502 0.003,17.625022 5.19279,5.690413 5.19278,5.690414 h 3.30271 c 1.81648,0 3.3027,0.02605 3.3027,0.05788 0,0.03184 -0.12439,0.210133 -0.27642,0.39621 -0.36203,0.4431 -0.8748,1.641743 -0.84017,1.963952 0.0248,0.230621 0.0631,0.253974 0.46067,0.280939 1.09388,0.07419 2.77847,-0.383466 3.96603,-1.077456 0.49724,-0.290582 0.62092,-0.324819 1.03882,-0.287577 0.39696,0.03538 0.51465,0.09072 0.72122,0.339167 0.13577,0.163291 0.24685,0.382208 0.24685,0.486484 0,0.620154 -1.01023,1.841886 -1.92046,2.322533 -0.36253,0.191432 -0.95806,0.383957 -1.63904,0.52987 -1.23149,0.263874 -1.76867,0.490102 -1.97767,0.832884 -0.21757,0.356834 -0.10785,0.6364 0.45117,1.149614 l 0.49256,0.452209 -8.83848,0.04683 -8.83848,0.04684 -0.0223,8.155895 -0.0223,8.155895 3.98823,4.208169 c 2.19353,2.314495 4.90999,5.187345 6.03658,6.384095 l 2.04836,2.175927 16.47399,-10e-4 16.47399,-0.001 5.99681,-6.34281 z m -10.18068,4.600204 c -0.61373,-0.0823 -1.61366,-0.35297 -2.20018,-0.59553 -1.10877,-0.45855 -1.66894,-0.8642 -2.60737,-1.888118 -0.67204,-0.733256 -1.11737,-1.120195 -1.84946,-1.606948 -2.04432,-1.359227 -2.91153,-2.908218 -3.15447,-5.63451 -0.14067,-1.578476 -0.0736,-9.807739 0.0816,-10.008529 0.19439,-0.251549 0.47839,-0.180883 1.09423,0.272266 0.99623,0.733043 1.33265,0.795613 3.75449,0.698287 0.84223,-0.03385 1.14741,-0.009 1.5668,0.127578 0.87036,0.283436 1.69808,0.75611 3.2382,1.849183 1.52468,1.082119 2.37928,1.581148 2.70795,1.581276 0.3005,9.4e-5 0.46258,-0.343747 0.46233,-0.980879 -2.6e-4,-0.649405 -0.26434,-1.773483 -0.78898,-3.358234 -0.55407,-1.673647 -1.06846,-2.315234 -2.70961,-3.379675 -0.74507,-0.483249 -0.95509,-0.757227 -1.00729,-1.314042 -0.0372,-0.397115 -0.007,-0.466379 0.56265,-1.273145 0.89087,-1.262565 0.39712,-1.965802 -1.64721,-2.346075 -1.64723,-0.306407 -2.87286,-1.118889 -3.43817,-2.27919 -0.29782,-0.611292 -0.24539,-0.911935 0.21752,-1.24717 0.43784,-0.317085 0.83338,-0.277514 1.63342,0.163415 1.21827,0.671428 2.81793,1.084711 3.91143,1.010546 l 0.43363,-0.02941 -0.0102,-0.354987 c -0.006,-0.200666 -0.14879,-0.656232 -0.32894,-1.047939 -0.56289,-1.223929 -1.59672,-2.002678 -4.23692,-3.191507 -1.23913,-0.557959 -1.4202,-0.689367 -1.64863,-1.19646 -0.291,-0.645991 -0.22931,-2.030499 0.0905,-2.030499 0.0505,0 0.29427,0.19115 0.54171,0.424777 0.78378,0.740038 1.2194,0.911348 2.49183,0.979919 0.60732,0.03273 1.1612,0.09402 1.23083,0.136203 0.0696,0.04218 0.32511,0.220062 0.56772,0.395285 0.24261,0.175225 0.5564,0.327618 0.69731,0.338653 0.23273,0.01822 0.25883,-0.0095 0.28478,-0.302406 0.0562,-0.63385 -0.50887,-2.272679 -1.12165,-3.253326 -0.62901,-1.006625 -1.37553,-1.675198 -2.74214,-2.455816 -0.98436,-0.562277 -2.80811,-1.881038 -3.38528,-2.447904 -0.53827,-0.528664 -1.0165,-1.337129 -1.0165,-1.71843 0,-0.212227 0.0368,-0.246189 0.26701,-0.246189 0.14685,0 0.66657,0.179143 1.15492,0.398095 0.8142,0.365044 0.94943,0.397699 1.62881,0.393318 0.40749,-0.0026 0.97624,-0.04578 1.26388,-0.09591 0.2962,-0.05161 0.69307,-0.05805 0.91522,-0.01484 0.21573,0.04196 0.50991,0.09841 0.65373,0.125452 0.15575,0.02928 0.32838,-0.0042 0.42688,-0.0829 0.24811,-0.198105 0.12086,-0.563118 -0.40434,-1.159892 -0.58697,-0.66694 -1.31985,-1.180223 -2.80642,-1.965503 -1.46921,-0.776108 -1.91351,-1.195201 -2.37557,-2.240798 -0.37249,-0.842882 -0.34166,-1.102828 0.16558,-1.396287 l 0.31965,-0.184931 0.55025,0.201798 c 0.30264,0.11099 1.15822,0.459293 1.90129,0.774008 0.74307,0.314716 1.52755,0.618802 1.74328,0.675747 0.21573,0.05695 0.74211,0.287138 1.16974,0.511538 0.86014,0.451366 1.40409,0.532447 1.66817,0.248655 0.12282,-0.131986 0.13934,-0.27272 0.0962,-0.819607 -0.0653,-0.828593 -0.41903,-2.341913 -0.70331,-3.009201 l -0.2164,-0.507975 h 3.07651 3.07652 l 0.41842,0.491764 c 0.23014,0.27047 2.33445,2.58396 4.67626,5.14109 l 4.25783,4.649324 v 16.20481 16.204808 l -5.5567,5.862934 -5.55671,5.862923 -1.61253,-0.0119 c -0.88689,-0.007 -1.73021,-0.0277 -1.87403,-0.047 z m -33.66709,-5.860048 -5.51312,-5.821872 v -6.960174 -6.960176 h 8.01909 c 4.41049,0 8.01908,0.01831 8.01908,0.04069 0,0.02238 -0.38243,0.255957 -0.84985,0.519065 -1.85716,1.045397 -2.45345,1.816504 -3.15671,4.082203 -0.61449,1.979672 -0.68951,2.956853 -0.26225,3.415994 0.29473,0.31673 0.52198,0.229822 1.17487,-0.449314 0.71211,-0.74072 1.53814,-1.348502 2.7798,-2.045337 1.44676,-0.811944 1.94091,-0.976937 3.23414,-1.079861 2.05469,-0.163526 2.82792,-0.469207 3.87202,-1.530729 0.36328,-0.369338 0.75749,-0.742203 0.87602,-0.828587 0.27034,-0.197022 0.57772,-0.202341 0.64598,-0.01118 0.0852,0.238602 0.0582,8.734971 -0.0344,10.813431 -0.0888,1.993341 -0.19694,2.753599 -0.52504,3.690428 -0.17209,0.491356 -0.34764,0.714251 -1.58609,2.013895 -1.27689,1.339959 -1.47422,1.593719 -2.37506,3.054202 -1.14034,1.84875 -1.9369,2.74499 -2.90563,3.26925 -1.03073,0.5578 -1.40137,0.61804 -3.77678,0.61376 l -2.12293,-0.004 z m -0.79056,-35.876769 -4.71614,-5.175232 -0.003,-16.965247 -0.003,-16.965246 4.16208,-4.388149 c 2.28914,-2.413482 4.79116,-5.053479 5.56003,-5.86666 l 1.39794,-1.4785101 15.77336,0.0018 15.77336,0.0018 5.5567,5.8642421 5.55671,5.864244 v 7.856528 7.85653 h -8.9287 -8.9287 l -0.72471,-0.558422 c -0.83085,-0.640201 -2.15963,-1.40434 -2.86023,-1.644828 -1.12651,-0.386682 -1.87146,-0.948676 -1.81584,-1.369868 0.0245,-0.185106 0.12424,-0.247113 0.63912,-0.397142 0.56126,-0.163543 0.6765,-0.167651 1.43821,-0.05126 1.17107,0.178941 1.69771,0.160362 1.9862,-0.07007 0.41082,-0.328144 0.36385,-0.63457 -0.18481,-1.205644 -0.47061,-0.489841 -0.82551,-0.701901 -2.85553,-1.706197 -0.89599,-0.443263 -1.2183,-0.822484 -1.27577,-1.501012 -0.0628,-0.741531 0.0472,-0.817307 1.13679,-0.783126 0.80621,0.02529 0.92589,0.0087 1.00289,-0.139181 0.13712,-0.263308 -0.15662,-0.770856 -0.83861,-1.449031 -0.33115,-0.329293 -0.86686,-0.764942 -1.19046,-0.96811 -0.3236,-0.203167 -0.60859,-0.426031 -0.63331,-0.495252 -0.0637,-0.178472 0.18793,-0.445496 0.72931,-0.773838 0.39764,-0.241161 0.46718,-0.323979 0.46718,-0.556358 0,-0.332131 -0.31189,-0.749727 -0.85988,-1.151301 -1.01431,-0.743303 -1.58071,-1.412252 -1.58071,-1.866909 0,-0.173611 0.13644,-0.366035 0.50142,-0.707182 0.89279,-0.834477 0.91444,-1.17408 0.0825,-1.295146 -0.72107,-0.10494 -1.10695,-0.395959 -1.10695,-0.83484 0,-0.08111 0.21816,-0.402493 0.48481,-0.714182 0.27347,-0.319676 0.47258,-0.63488 0.45677,-0.723103 -0.0192,-0.107389 -0.1641,-0.180912 -0.46228,-0.234634 -0.7487,-0.134888 -0.89268,-0.378783 -1.26769,-2.147489 -0.33478,-1.578892 -0.31687,-1.526054 -0.4707,-1.38886 -0.0681,0.06077 -0.20756,0.518644 -0.30984,1.017495 -0.27084,1.321062 -0.5921,2.378282 -0.81326,2.676338 -0.13823,0.1863 -0.3165,0.285559 -0.62359,0.347211 -0.23651,0.04748 -0.46495,0.12387 -0.50764,0.169748 -0.15166,0.162975 0.0436,0.475137 0.58882,0.941358 0.30394,0.259902 0.57612,0.538386 0.60486,0.618855 0.12762,0.3574 -0.38318,0.954735 -1.59987,1.870926 -0.77061,0.58028 -1.31023,1.08853 -1.31023,1.234059 0,0.259072 0.36181,0.417468 1.13061,0.494967 0.70054,0.07062 1.22282,0.254311 1.22282,0.430083 0,0.285695 -0.28966,0.479619 -1.31546,0.880686 -0.84774,0.33145 -2.16677,1.514631 -2.48044,2.224982 -0.14225,0.322129 -0.1416,0.342616 0.0149,0.469955 0.12429,0.101116 0.36038,0.122799 0.98147,0.09014 0.71492,-0.03759 0.83829,-0.02099 0.98059,0.131932 0.33477,0.359757 0.0942,1.352895 -0.42368,1.749197 -0.13297,0.10175 -0.69299,0.401054 -1.24447,0.665121 -1.07344,0.51399 -1.69739,0.964998 -2.12409,1.535362 -0.42275,0.565092 -0.30215,0.657638 0.98478,0.755654 1.02164,0.07781 1.09214,0.07115 1.73585,-0.163921 1.08378,-0.395777 1.67616,-0.293643 1.79959,0.310269 0.12757,0.624146 -0.61037,1.41412 -2.01674,2.158964 -2.50413,1.326239 -5.47678,3.478856 -6.59248,4.773885 -0.66959,0.777217 -0.76659,1.260045 -0.32371,1.611329 0.21408,0.169811 0.22785,0.168462 0.78447,-0.07685 0.5817,-0.256362 0.68957,-0.266743 2.26627,-0.21809 0.52583,0.01623 0.98125,-0.03811 1.56895,-0.187187 0.98882,-0.250828 0.97921,-0.24586 1.62503,-0.839913 0.28077,-0.258259 0.57812,-0.469937 0.66078,-0.470394 0.25428,-0.0014 0.44377,0.528767 0.38981,1.090646 -0.0661,0.688295 -0.46551,1.442264 -1.24834,2.356506 -0.66647,0.778352 -1.28959,1.264789 -3.5628,2.781287 -1.25094,0.834525 -1.84316,1.47827 -2.29353,2.493058 -0.51167,1.152926 -0.88695,2.994809 -0.88762,4.356495 -5.3e-4,1.074869 0.2339,1.119457 1.01574,0.193184 0.91612,-1.085368 1.48569,-1.355029 3.12421,-1.479161 1.37301,-0.104015 1.84204,-0.240629 2.57542,-0.75013 0.99603,-0.691976 1.28854,-0.65197 1.18471,0.162033 -0.14919,1.169749 -0.91705,2.002937 -2.72591,2.957834 -1.10714,0.584463 -1.38133,0.774615 -1.88407,1.306587 -0.62734,0.663833 -0.7617,1.038556 -0.4148,1.156874 0.0954,0.03256 0.20331,0.04044 0.2397,0.01753 0.0364,-0.02292 0.37994,0.01343 0.76346,0.08078 1.15289,0.202436 2.30747,-0.06499 3.34651,-0.77512 0.74361,-0.508221 0.85258,-0.532784 1.11456,-0.251246 0.20061,0.215584 0.21918,0.292143 0.17282,0.712795 -0.074,0.67114 -0.36686,1.260458 -0.92462,1.860384 -0.51782,0.556984 -2.53508,2.038348 -3.75273,2.755802 -1.35917,0.800834 -2.21616,1.655717 -2.69749,2.690845 -0.3003,0.645787 -0.31745,0.754921 -0.14311,0.91041 0.0963,0.08587 0.23814,0.05775 0.6511,-0.129034 0.65822,-0.297714 1.4716,-0.314213 2.53804,-0.05148 0.81764,0.201437 1.44033,0.235251 1.77959,0.09664 0.18392,-0.07514 0.23807,-0.05843 0.31569,0.09742 0.10174,0.204299 0.0403,1.333966 -0.0994,1.826588 -0.13026,0.45947 -0.58937,0.851963 -1.46934,1.256135 l -0.81933,0.376326 h -4.41723 -4.41723 z"
       id="path390" /><g
       id="g357"
       transform="matrix(0.16788955,0,0,0.20441478,87.551342,54.711679)"><path
         d="M 149.333,149.333 C 96,149.333 50.674,122.62 50.674,90.62 50.674,58.62 90.667,32 144,32 c 67.357,0 98.572,25.911 98.572,57.911 0,32 -34.407,59.422 -93.239,59.422 M 128,0 C 58.667,0 0,37.333 0,85.333 0,130.667 58.312,168.302 127.646,168.302 196.979,168.302 256,133.333 256,85.333 256,37.333 197.333,0 128,0"
         fill="url(#a)"
         id="path344"
         style="fill:url(#a)" /><path
         d="m 105.946,51.829 v 141.109 h 42.643 v -54.875 c 10.661,0 17.011,-2.328 23.986,10.452 10.661,18.292 23.987,44.423 23.987,44.423 H 247.2 c 0,0 -31.982,-52.262 -34.647,-54.875 -4.915,-5.227 -10.661,-5.227 -18.656,-7.84 15.991,-2.613 30.899,-9.248 36.082,-23.464 4.531,-13.065 3.998,-29.685 -5.714,-40.83 -8.411,-8.819 -17.042,-14.1 -38.364,-14.1 z m 42.643,29.388 h 27.984 c 6.636,0 11.993,6.533 11.993,13.065 0,6.533 -5.33,13.066 -11.993,13.066 h -27.984 z"
         fill="#2165b6"
         id="path346" /></g></g></svg>
